# xmcd
#
# Track frame offsets: 
#        150
#        11963
#        20884
#        31640
#        40736
#        51886
#        62127
#        74340
#        83750
#        93417
#        104579
#        114943
#        124740
#        137305
#        151232
#        163003
#        179726
#        191666
#        203826
#        215751
#        227607
#        239063
#        254644
#        265582
#        280114
#        290010
#        304746
#
# Disc length: 4371 seconds
#
# Revision: 0
# Processed by: cddbd v1.5.2PL0 Copyright (c) Steve Scherf et al.
# Submitted via: ExactAudioCopy v0.99pb4
#
DISCID=8e11111b
DTITLE=Chet Atkins - Singles 1961 - 1988
DYEAR=1900
DGENRE=Country
TTITLE0=Windy And Warm (1961)
TTITLE1=I Heard The Bells On Christmas Day (1962)
TTITLE2=Outa In Die Langpad
TTITLE3=Marie
TTITLE4=Westewindjie
TTITLE5=Tamatesous En Kerriekos
TTITLE6=Malaguena (alt.)
TTITLE7=Rhythm Guitar (1965)
TTITLE8=The Bilbao Song (1966)
TTITLE9=Prissy
TTITLE10=Charlie Brown (1967)
TTITLE11=Huntin' Boots (1968)
TTITLE12=Chet's Tune
TTITLE13=Light My Fire
TTITLE14=Love Beads (1969)
TTITLE15=Red White And Blue Medley (1971)
TTITLE16=Kentucky
TTITLE17=Knee Action (1972)
TTITLE18=Ruby Are You Mad At Your Man (1973)
TTITLE19=Somewhere My Love
TTITLE20=Paramaribo (alt.)
TTITLE21=City Of New Orleans (alt.)
TTITLE22=Dizzy Strings (1974)
TTITLE23=Strawberry Man (1980)
TTITLE24=Dizzy Fingers (alt.) (1985)
TTITLE25=Sunrise (alt.) (1985)
TTITLE26=The Mockingbird (alt.) (1988)
EXTD=
EXTT0=
EXTT1=
EXTT2=
EXTT3=
EXTT4=
EXTT5=
EXTT6=
EXTT7=
EXTT8=
EXTT9=
EXTT10=
EXTT11=
EXTT12=
EXTT13=
EXTT14=
EXTT15=
EXTT16=
EXTT17=
EXTT18=
EXTT19=
EXTT20=
EXTT21=
EXTT22=
EXTT23=
EXTT24=
EXTT25=
EXTT26=
PLAYORDER=
